<?xml version="1.0" encoding="UTF-8"?> <svg xmlns="http://www.w3.org/2000/svg" id="_Слой_2" data-name="Слой 2" viewBox="0 0 367.65 106.22"> <defs> <style> .cls-1 { fill: #c8353f; } .cls-2 { fill: #2a3058; } </style> </defs> <g id="Layer_1" data-name="Layer 1"> <g> <g> <path class="cls-2" d="m0,11.62v88.39h36.28c2.88,0,5.22-2.34,5.22-5.22V2.28L5.22,6.41c-2.88,0-5.22,2.34-5.22,5.22Z"></path> <path class="cls-2" d="m331.36,6.41c-2.88,0-5.22,2.34-5.22,5.22v88.39h36.28c2.88,0,5.22-2.34,5.22-5.22V2.28l-36.28,4.13Z"></path> <path class="cls-2" d="m222.01,2.3v24.17c0,2.43-1.98,4.41-4.41,4.41h-25.7v63.94c0,2.85-2.35,5.2-5.24,5.2h-24.01c-14.4-11.06-17.57-23.8-17.28-35.23.45-20.01,14.07-32.71,14.07-32.71-56.18,10.19-47.85,58.62-45.71,67.94h-32.22V30.89h-26.9c-2.43,0-4.41-1.98-4.41-4.41V2.3h171.81Z"></path> <path class="cls-2" d="m273.04,29.62c2.84,0,5.21,1.53,6,3.62h38.79c0-22.74-20.05-33.24-44.79-33.24s-44.79,8.07-44.79,33.24c0,22.99,20.05,33.24,44.79,33.24v.07c3.48,0,6.29,2.28,6.29,5.08s-2.82,5.08-6.29,5.08c-2.89,0-5.3-1.58-6.04-3.72h-38.75c0,22.74,20.05,33.24,44.79,33.24s44.79-8.07,44.79-33.24c0-22.99-20.05-33.24-44.79-33.24v.04c-3.48,0-6.29-2.28-6.29-5.08s2.82-5.08,6.29-5.08Z"></path> </g> <path class="cls-1" d="m192.13,21.02c-13.29,3-15.72,5.44-18.72,18.72-3-13.29-5.44-15.72-18.72-18.72,13.29-3,15.72-5.44,18.72-18.72,3,13.29,5.44,15.72,18.72,18.72Z"></path> </g> </g> </svg> 