<svg xmlns="http://www.w3.org/2000/svg" viewBox="0 0 29.3 23.6">
  <defs>
    <style>.storage2_svg__cls-1{fill:#999}</style>
  </defs>
  <path class="storage2_svg__cls-1"
        d="M28.17 6l-1.92-3.83A2.66 2.66 0 0023.87.7H5.42a2.66 2.66 0 00-2.37 1.47L1.13 6zM5.42 0h18.45a3.34 3.34 0 013 1.86l2.43 4.87H0l2.42-4.87a3.36 3.36 0 013-1.86z"></path>
  <path class="storage2_svg__cls-1"
        d="M12.07.13l.68.13-1.12 6-.69-.13zM15.94.26l.69-.13 1.12 6-.68.13zM8.14.09l.66.25-2.25 6-.66-.24zM20.55.09l-.65.25 2.24 6 .66-.25zM7.85 11.09a.3.3 0 00-.3.3v5a.29.29 0 00.3.3h4a.3.3 0 00.3-.3v-5a.31.31 0 00-.3-.3zm4-.7a1 1 0 011 1v5a1 1 0 01-1 1h-4a1 1 0 01-1-1v-5a1 1 0 011-1zM21.15 22.69v-11.3a.31.31 0 00-.3-.3h-4a.3.3 0 00-.3.3v11.3zm-4.3-12.3h4a1 1 0 011 1v12h-6v-12a1 1 0 011-1z"></path>
  <path class="storage2_svg__cls-1" d="M25.28 6.4H26v17.2H3.5V6.4h.7v16.5h21.08z"></path>
</svg>
