<svg xmlns="http://www.w3.org/2000/svg" width="29" height="22" fill="none">
  <path fill-rule="evenodd" clip-rule="evenodd"
        d="M4.5 1A3.5 3.5 0 001 4.5v8.562h18.006V4.5a3.5 3.5 0 00-3.5-3.5H4.5zM0 4.5A4.5 4.5 0 014.5 0h11.006a4.5 4.5 0 014.5 4.5v1.948h3.099a2.5 2.5 0 011.745.71l3.395 3.308a2.5 2.5 0 01.755 1.79v3.935a2.5 2.5 0 01-2.5 2.5H3.688a2.5 2.5 0 01-2.5-2.5v-2.13H0V4.5zm2.188 9.562v2.13a1.5 1.5 0 001.5 1.5H26.5a1.5 1.5 0 001.5-1.5v-3.936a1.5 1.5 0 00-.453-1.074l-3.395-3.308a1.5 1.5 0 00-1.047-.426h-3.099v6.614H2.188zm19.364-4.799h1v1.65h1.978v1H21.55v-2.65z"
        fill="#999"></path>
  <path
    d="M10.739 18.56c0 1.624-1.337 2.94-2.987 2.94-1.649 0-2.986-1.316-2.986-2.94 0-1.624 1.337-2.94 2.986-2.94 1.65 0 2.987 1.316 2.987 2.94z"
    fill="#fff"></path>
  <path fill-rule="evenodd" clip-rule="evenodd"
        d="M7.752 20.5c1.112 0 1.987-.883 1.987-1.94s-.875-1.94-1.987-1.94c-1.111 0-1.986.883-1.986 1.94s.875 1.94 1.986 1.94zm0 1c1.65 0 2.987-1.316 2.987-2.94 0-1.624-1.337-2.94-2.987-2.94-1.649 0-2.986 1.316-2.986 2.94 0 1.624 1.337 2.94 2.986 2.94z"
        fill="#999"></path>
  <path
    d="M26.097 18.56c0 1.624-1.337 2.94-2.986 2.94-1.65 0-2.987-1.316-2.987-2.94 0-1.624 1.337-2.94 2.987-2.94 1.649 0 2.986 1.316 2.986 2.94z"
    fill="#fff"></path>
  <path fill-rule="evenodd" clip-rule="evenodd"
        d="M23.11 20.5c1.113 0 1.987-.883 1.987-1.94s-.875-1.94-1.986-1.94c-1.112 0-1.987.883-1.987 1.94S22 20.5 23.111 20.5zm0 1c1.65 0 2.987-1.316 2.987-2.94 0-1.624-1.337-2.94-2.986-2.94-1.65 0-2.987 1.316-2.987 2.94 0 1.624 1.337 2.94 2.987 2.94z"
        fill="#999"></path>
</svg>
