<svg width="31" height="28" viewBox="0 0 31 28" fill="none" xmlns="http://www.w3.org/2000/svg">
<path id="telegram copy 3" fill-rule="evenodd" clip-rule="evenodd" d="M0.547552 13.4259L7.69058 16.1916L10.4554 25.4156C10.6323 26.0064 11.3286 26.2247 11.7909 25.8327L15.7725 22.4654C16.1899 22.1127 16.7843 22.0951 17.2205 22.4235L24.402 27.8324C24.8964 28.2052 25.5969 27.9242 25.7209 27.3043L30.9817 1.05262C31.1171 0.375563 30.4758 -0.189261 29.8544 0.0600803L0.539182 11.7919C-0.184255 12.0813 -0.177952 13.1439 0.547552 13.4259ZM9.66803 14.7553L23.626 6.03949C23.8769 5.88331 24.135 6.2272 23.9195 6.42978L12.4002 17.2859C11.9953 17.668 11.7341 18.1794 11.6601 18.7344L11.2677 21.6827C11.2157 22.0763 10.6703 22.1154 10.5632 21.7344L9.05402 16.3582C8.88117 15.745 9.13305 15.09 9.66803 14.7553Z" fill="#D5D5D5"/>
</svg>
