<svg xmlns="http://www.w3.org/2000/svg" width="29" height="28" fill="none">
  <path fill-rule="evenodd" clip-rule="evenodd"
        d="M9.652 2.358c-.289.792-.16 1.724.251 2.285.194.264.557.537 1.052.8.484.257 1.05.48 1.595.665.54.183 1.052.323 1.43.418a16.94 16.94 0 00-.316-2.594c-.17-.81-.415-1.576-.758-2.126-.34-.545-.725-.806-1.18-.806-1.163 0-1.801.61-2.074 1.358zm1.536 4.302a9.412 9.412 0 01-.702-.334c-.54-.287-1.063-.646-1.39-1.092-.629-.86-.774-2.147-.384-3.219C9.12.9 10.114 0 11.726 0c.932 0 1.588.572 2.028 1.276.433.693.707 1.585.885 2.434l.007-.024c.257-.856.622-1.753 1.142-2.446C16.312.542 17.038 0 18 0c.822 0 1.493.183 1.997.536.512.357.812.861.93 1.42.229 1.087-.231 2.35-1.046 3.306-.514.603-1.22 1.058-1.937 1.398H26.5a2.5 2.5 0 012.5 2.5V25.5a2.5 2.5 0 01-2.5 2.5h-24A2.5 2.5 0 010 25.5V9.16a2.5 2.5 0 012.5-2.5h8.688zm3.881-.11c.329-.068.755-.171 1.218-.317 1.042-.33 2.178-.85 2.832-1.619.685-.804.975-1.76.83-2.452a1.267 1.267 0 00-.525-.806C19.132 1.15 18.68 1 18 1c-.537 0-1 .29-1.413.84-.417.557-.74 1.325-.983 2.134a16.323 16.323 0 00-.535 2.576zM2.5 7.66A1.5 1.5 0 001 9.16V25.5A1.5 1.5 0 002.5 27h24a1.5 1.5 0 001.5-1.5V9.16a1.5 1.5 0 00-1.5-1.5h-24zm10.415 6.024a.5.5 0 01-.136.694L9.138 16.83H22.5a.5.5 0 010 1H9.032l3.763 2.748a.5.5 0 01-.59.808l-5-3.652a.5.5 0 01.016-.819l5-3.367a.5.5 0 01.694.136z"
        fill="#999"></path>
</svg>
