<?xml version="1.0" encoding="UTF-8" standalone="no"?>
<svg width="54px" height="54px" viewBox="0 0 54 54" version="1.1" xmlns="http://www.w3.org/2000/svg" xmlns:xlink="http://www.w3.org/1999/xlink">
    <!-- Generator: Sketch 41.2 (35397) - http://www.bohemiancoding.com/sketch -->
    <title>Search</title>
    <desc>Created with Sketch.</desc>
    <defs></defs>
    <g id="Page-1" stroke="none" stroke-width="1" fill="none" fill-rule="evenodd">
        <g id="Search" fill="#000000">
            <path d="M23.9,47.7 C10.9,47.7 0.3,37.1 0.3,24.1 C0.3,11.1 10.9,0.5 23.9,0.5 C36.9,0.5 47.5,11.1 47.5,24.1 C47.4,37.2 36.8,47.7 23.9,47.7 Z M23.9,3.6 C12.6,3.6 3.3,12.8 3.3,24.2 C3.3,35.5 12.5,44.8 23.9,44.8 C35.3,44.8 44.5,35.6 44.5,24.2 C44.4,12.8 35.2,3.6 23.9,3.6 Z" id="Shape"></path>
            <rect id="Rectangle-path" transform="translate(46.012990, 46.125210) rotate(45.000000) translate(-46.012990, -46.125210) " x="36.9130773" y="44.6252244" width="18.1998255" height="2.99997123"></rect>
        </g>
    </g>
</svg>